<?xml version="1.0" standalone="no"?>
<!DOCTYPE svg PUBLIC "-//W3C//DTD SVG 20010904//EN"
 "http://www.w3.org/TR/2001/REC-SVG-20010904/DTD/svg10.dtd">
<svg version="1.0" xmlns="http://www.w3.org/2000/svg"
 width="45747.000000pt" height="10862.000000pt" viewBox="0 0 45747.000000 10862.000000"
 preserveAspectRatio="xMidYMid meet">

<g transform="translate(0.000000,10862.000000) scale(0.100000,-0.100000)"
fill="#000000" stroke="none">
<path d="M315546 108549 c28 -30 559 -594 1180 -1254 621 -660 1561 -1659
2089 -2220 10184 -10820 16407 -17503 21765 -23370 9260 -10140 15561 -17487
20120 -23460 335 -440 430 -565 902 -1200 1762 -2370 3067 -4250 4285 -6170
1624 -2561 2904 -4960 3771 -7067 1264 -3070 1782 -5766 1577 -8208 -166
-1965 -796 -3778 -1923 -5535 -838 -1306 -1975 -2599 -3417 -3884 -3257 -2905
-8156 -5883 -16260 -9884 -3135 -1548 -5486 -2670 -12550 -5985 -3758 -1763
-4971 -2334 -6925 -3260 -4177 -1978 -7831 -3740 -11165 -5385 -1045 -515
-1216 -600 -1213 -602 2 -2 147 21 323 50 2486 413 7047 1078 11065 1614
14036 1873 28936 3319 43115 4186 1940 118 4511 262 6000 335 1353 66 2337
113 3295 155 437 19 885 39 995 45 628 32 3433 138 5155 195 14245 467 27680
310 39950 -465 7554 -478 14594 -1177 21340 -2121 1399 -196 1635 -234 1975
-320 1062 -271 1807 -716 2101 -1255 102 -188 147 -368 147 -589 -1 -452 -212
-909 -682 -1475 -114 -138 -558 -585 -726 -731 -245 -214 -604 -504 -777 -628
-27 -19 -46 -36 -45 -38 5 -4 357 139 562 230 1850 815 3433 1943 4441 3162
1282 1551 1713 3276 1283 5130 -345 1484 -1270 3085 -2713 4695 -166 185 -629
649 -856 856 -1259 1154 -2970 2408 -5511 4042 -540 346 -1316 836 -2144 1352
-2058 1282 -2676 1675 -3298 2101 -225 154 -234 162 -243 203 -36 168 -225
771 -356 1136 -787 2189 -2195 4210 -4243 6090 -1848 1696 -4231 3349 -7595
5265 -2405 1371 -5271 2866 -10600 5530 -3504 1752 -6312 3172 -8555 4328
-10859 5593 -19807 10805 -29275 17052 -14990 9891 -32735 22370 -51175 35989
-5098 3765 -10509 7816 -14505 10860 -289 220 -572 435 -630 479 l-105 80 51
-54z m39496 -35588 c128 -49 265 -101 305 -117 l72 -29 26 -115 c15 -63 68
-283 118 -488 l92 -373 104 -44 c58 -25 106 -43 108 -41 2 2 -39 174 -91 382
-51 208 -105 427 -118 486 l-25 106 21 -8 c12 -4 59 -24 106 -44 46 -20 85
-36 86 -36 1 0 -6 34 -16 75 l-17 75 116 -108 c111 -104 894 -827 1261 -1166
235 -217 1324 -1228 1960 -1820 283 -264 576 -536 650 -605 75 -69 230 -214
345 -322 116 -108 455 -425 755 -705 1698 -1585 4023 -3773 6345 -5969 1636
-1547 4827 -4576 5290 -5020 255 -245 2271 -2167 2445 -2330 192 -181 594
-566 614 -589 18 -21 18 -21 -20 -28 -22 -4 -60 -7 -86 -7 l-46 -1 138 -284
c77 -156 186 -382 243 -502 l103 -219 -40 -7 c-23 -3 -59 -7 -82 -7 l-40 -1
-99 208 c-181 379 -265 547 -275 546 -6 -1 -43 -2 -84 -2 l-74 -2 108 -222
c153 -317 259 -538 257 -539 -1 0 -73 -4 -159 -8 -87 -4 -160 -9 -163 -12 -3
-3 51 -125 119 -270 205 -439 336 -731 331 -739 -3 -4 -113 -11 -245 -15 -132
-4 -240 -9 -240 -12 0 -2 25 -58 55 -125 30 -66 55 -123 55 -124 0 -2 -75 -4
-166 -4 -157 0 -165 -1 -159 -19 3 -10 28 -67 55 -127 l50 -109 167 1 168 1
56 -128 57 -129 -147 0 c-80 0 -155 -3 -166 -6 -17 -4 -27 12 -75 123 l-56
128 -84 3 -85 3 -199 267 c-110 147 -201 261 -203 255 -2 -6 3 -25 12 -42 8
-17 43 -91 76 -164 45 -100 54 -126 36 -107 -13 14 -179 189 -368 390 -435
461 -1076 1136 -1363 1435 -121 127 -308 322 -416 435 -2278 2384 -4385 4554
-7060 7270 -2965 3009 -6460 6503 -9901 9895 l-447 440 -110 450 c-92 371
-232 977 -232 999 0 12 23 4 252 -83z m-220 -1021 c28 -10 38 -20 42 -43 3
-17 5 -32 3 -33 -2 -2 -28 19 -58 47 -30 28 -47 49 -39 46 8 -2 31 -10 52 -17z
m21414 -18402 c21 -41 12 -34 -26 20 -24 34 -27 41 -11 27 13 -11 29 -32 37
-47z m-134 -800 c64 -140 66 -135 -43 -139 l-62 -3 -57 125 -57 124 61 6 c33
3 70 6 82 7 17 2 30 -18 76 -120z"/>
<path d="M374760 53064 c0 -3 27 -62 59 -130 l60 -124 84 0 85 0 -61 130 -61
130 -83 0 c-46 0 -83 -3 -83 -6z"/>
<path d="M237430 62113 c-2619 -56 -5089 -430 -7465 -1130 -1933 -569 -3947
-1432 -5721 -2448 -2171 -1245 -4136 -2784 -5794 -4535 -1457 -1541 -2763
-3288 -3862 -5171 -2338 -4002 -3915 -8829 -4493 -13744 -177 -1509 -255
-2844 -255 -4375 0 -1036 27 -1674 111 -2595 221 -2450 792 -4826 1648 -6868
50 -119 91 -219 91 -222 0 -3 -3061 -5 -6801 -5 l-6802 0 6 38 c4 20 1721
9069 3816 20107 2095 11039 3813 20087 3816 20108 l7 37 -6260 0 -6260 0 -6
-27 c-6 -27 -9737 -51298 -9751 -51375 l-7 -38 15781 0 c8679 0 15781 2 15781
5 0 6 910 4807 913 4817 1 5 92 -78 202 -183 1584 -1514 3388 -2712 5486
-3642 3083 -1367 6784 -1973 10799 -1767 3557 183 6884 951 9870 2278 2263
1005 4335 2299 6200 3871 1016 856 1869 1703 2746 2727 1128 1316 2165 2797
3082 4403 116 202 153 260 158 245 33 -93 238 -608 319 -804 524 -1253 1099
-2325 1803 -3365 1382 -2041 3073 -3716 5167 -5120 2485 -1666 5402 -2814
8715 -3431 2495 -464 5127 -631 8045 -509 1467 62 2843 185 4180 376 1319 188
2704 429 3880 675 1843 386 4097 979 5895 1550 556 177 1121 366 1125 377 3 7
1182 6213 2620 13792 1438 7579 2618 13792 2621 13808 l6 27 -9975 0 -9975 0
-38 -197 c-20 -109 -465 -2439 -989 -5178 l-951 -4980 3823 -3 3823 -2 -5 -23
c-3 -12 -379 -1991 -836 -4397 -456 -2406 -831 -4375 -832 -4376 -1 -1 -85
-29 -187 -62 -821 -269 -1895 -457 -3005 -527 -764 -47 -1789 -50 -2515 -5
-2081 129 -3891 594 -5411 1391 -1603 840 -2812 2022 -3713 3627 -825 1472
-1302 3272 -1431 5402 -99 1651 41 3650 375 5365 254 1299 696 2765 1210 4011
797 1930 1799 3558 3106 5044 687 782 1494 1538 2238 2099 1573 1185 3292
2052 5306 2676 1605 497 3313 799 5115 905 824 48 1895 52 2755 9 1804 -89
3728 -375 5500 -819 568 -142 937 -249 1550 -452 866 -286 1281 -453 2170
-872 283 -134 518 -241 521 -237 4 3 855 2418 1893 5366 1706 4846 1885 5361
1870 5372 -37 27 -920 477 -1064 541 -692 312 -1402 554 -2530 862 -1084 296
-1884 471 -3065 670 -2120 358 -3724 512 -6180 592 -525 17 -2480 17 -2905 0
-1587 -64 -2791 -164 -4160 -348 -1908 -255 -3707 -634 -5495 -1155 -3750
-1095 -6992 -2665 -9975 -4832 -533 -388 -1219 -924 -1553 -1215 -2033 -1770
-3751 -3719 -5207 -5907 -106 -159 -196 -288 -199 -286 -3 2 -34 94 -69 205
-138 443 -360 1095 -505 1482 -843 2246 -2060 4280 -3602 6014 -500 563 -1123
1175 -1692 1662 -2167 1858 -4835 3212 -7788 3954 -2090 525 -4506 787 -6815
737z m30 -10743 c1673 -104 2928 -445 4060 -1101 1299 -755 2195 -1746 2944
-3259 388 -784 654 -1551 861 -2480 252 -1135 379 -2118 436 -3380 15 -327 15
-1379 0 -1755 -109 -2710 -586 -5502 -1381 -8080 -193 -626 -248 -802 -327
-1040 -307 -931 -666 -1835 -1083 -2730 -215 -460 -604 -1216 -818 -1590 -714
-1249 -1548 -2328 -2393 -3100 -1198 -1093 -2548 -1937 -3914 -2445 -1140
-424 -2276 -630 -3469 -630 -1464 0 -2856 249 -3960 709 -1021 425 -1980 1085
-2699 1855 -993 1066 -1824 2678 -2237 4336 -264 1062 -408 2067 -481 3365
-17 306 -23 1337 -10 1735 44 1346 161 2472 411 3945 247 1456 573 2794 1054
4325 492 1566 1171 3152 1954 4560 608 1095 1314 2079 2102 2934 233 252 711
731 915 916 1030 935 2075 1611 3285 2125 1042 443 2220 715 3405 785 99 6
207 12 240 14 114 7 940 -3 1105 -14z"/>
<path d="M90395 61573 c-5265 -106 -9946 -1444 -14065 -4018 -1153 -720 -2308
-1577 -3434 -2544 -937 -805 -1885 -1746 -2706 -2686 -2298 -2630 -4107 -5690
-5392 -9120 -1160 -3100 -1865 -6461 -2088 -9955 -54 -861 -74 -1490 -74
-2425 0 -905 18 -1455 75 -2245 287 -4047 1387 -7638 3232 -10555 1525 -2411
3547 -4355 5982 -5752 2662 -1527 5756 -2391 9235 -2578 891 -47 2155 -46
3280 5 2620 118 5095 485 7245 1075 998 274 1958 610 2735 958 391 175 358
157 364 192 3 16 350 1890 771 4164 421 2274 764 4135 763 4137 -2 1 -66 -36
-143 -83 -973 -596 -2343 -1285 -3340 -1679 -1828 -722 -4090 -1197 -6440
-1353 -2211 -147 -4019 -24 -5700 389 -2367 581 -4338 1739 -5847 3435 -2024
2274 -3194 5505 -3423 9445 -54 935 -54 2025 1 3050 223 4226 1339 8199 3232
11510 1150 2013 2557 3736 4122 5050 1266 1062 2704 1944 4260 2613 1718 738
3613 1208 5510 1367 496 41 740 51 1361 57 915 8 1654 -20 2529 -98 2189 -193
4234 -665 5700 -1314 480 -212 1367 -688 1945 -1043 635 -390 1081 -722 1354
-1008 106 -111 109 -114 115 -87 3 15 308 1722 677 3792 l671 3763 -53 55
c-152 155 -483 431 -760 633 -338 246 -1054 701 -1434 910 -695 383 -1715 776
-2785 1074 -2243 624 -4816 923 -7475 869z"/>
<path d="M166375 61569 c-4261 -128 -8412 -1457 -11970 -3832 -2830 -1890
-5211 -4395 -7162 -7538 -765 -1231 -1459 -2548 -2077 -3942 -1888 -4254
-3020 -9104 -3261 -13967 -35 -710 -40 -935 -40 -1875 0 -1077 13 -1480 75
-2290 455 -5920 2685 -10934 6326 -14225 1980 -1789 4331 -3039 6999 -3720
1125 -288 2334 -477 3540 -555 484 -31 642 -36 1240 -42 746 -7 1350 10 2015
57 5345 378 10077 2427 13920 6030 2573 2412 4714 5573 6341 9362 1789 4165
2866 8949 3094 13743 30 632 36 881 42 1640 7 986 -11 1646 -67 2490 -224
3327 -972 6371 -2204 8973 -1110 2342 -2609 4315 -4441 5842 -1940 1617 -4239
2736 -6860 3339 -1700 391 -3606 567 -5510 510z m180 -7319 c2391 -83 4309
-700 5890 -1894 535 -404 1053 -905 1500 -1451 610 -745 1160 -1682 1585
-2700 735 -1763 1170 -3909 1290 -6365 41 -846 41 -1904 0 -2760 -233 -4828
-1618 -10178 -3635 -14040 -950 -1821 -1926 -3183 -3160 -4415 -1354 -1351
-2924 -2370 -4630 -3005 -1069 -397 -2143 -624 -3320 -702 -412 -27 -1231 -14
-1745 28 -2214 179 -4075 895 -5615 2159 -314 258 -807 738 -1078 1048 -1733
1989 -2786 4765 -3127 8237 -116 1186 -142 2522 -75 3860 250 4979 1750 10359
3981 14278 1092 1917 2292 3405 3767 4670 1507 1292 3182 2200 4921 2667 1120
300 2252 427 3451 385z"/>
<path d="M702 56958 c-381 -2092 -692 -3806 -692 -3810 0 -5 2921 -8 6491 -8
l6491 0 -6 -27 c-6 -29 -4193 -23669 -6312 -35638 -684 -3866 -1247 -7040
-1249 -7052 l-5 -23 4063 0 4063 0 1396 7958 c768 4376 2455 13993 3750 21370
l2353 13412 6526 0 6526 0 7 38 c10 62 1375 7535 1381 7560 l5 22 -17048 0
-17048 0 -692 -3802z"/>
<path d="M33686 35608 c-2441 -13834 -4440 -25165 -4443 -25181 l-5 -27 13503
2 13503 3 72 405 c241 1343 1234 6912 1240 6948 l7 42 -9442 0 -9441 0 5 23
c2 12 504 2868 1115 6347 610 3479 1201 6845 1313 7480 l203 1155 8401 3 8401
2 6 28 c3 15 64 351 135 747 72 396 364 2021 651 3610 286 1590 523 2902 526
2918 l6 27 -8437 0 -8437 0 6 28 c3 15 533 2979 1176 6587 643 3608 1172 6570
1175 6583 l5 22 8919 0 8920 0 10 53 c7 36 1144 6395 1307 7315 l6 32 -12984
0 -12984 0 -4438 -25152z"/>
<path d="M106655 60748 c-2 -7 -1140 -6452 -2529 -14323 -1389 -7870 -3308
-18745 -4265 -24165 -956 -5420 -1816 -10294 -1911 -10830 -94 -536 -174 -987
-177 -1003 l-6 -27 3784 2 3783 3 33 185 c18 102 42 235 52 295 1081 6052
3753 21137 3887 21935 1194 7149 1950 12206 2388 15990 50 429 144 1283 163
1484 l8 79 133 35 c79 21 136 31 142 26 4 -5 1285 -3989 2845 -8854 1560
-4865 4448 -13870 6418 -20012 l3582 -11168 4131 0 4131 0 11 58 c31 158 8872
50273 8872 50286 0 15 -340 16 -3814 16 l-3815 0 -10 -52 c-9 -43 -2838
-15986 -6063 -34165 -315 -1778 -576 -3229 -579 -3225 -3 4 -502 1571 -1109
3482 -921 2904 -10556 33252 -10726 33788 l-55 172 -4650 0 c-3711 0 -4650 -3
-4654 -12z"/>
</g>
</svg>
